HIERARCHY
ROOT hip
{
  OFFSET 0 0 0
  CHANNELS 6 Xposition Yposition Zposition Zrotation Yrotation Xrotation
  JOINT abdomen
  {
    OFFSET 0 20.6881 -0.73152
    CHANNELS 3 Zrotation Xrotation Yrotation
    JOINT chest
    {
      OFFSET 0 11.7043 -0.48768
      CHANNELS 3 Zrotation Xrotation Yrotation
      JOINT neck
      {
        OFFSET 0 22.1894 -2.19456
        CHANNELS 3 Zrotation Xrotation Yrotation
        JOINT head
        {
          OFFSET -0.24384 7.07133 1.2192
          CHANNELS 3 Zrotation Xrotation Yrotation
          JOINT leftEye
          {
            OFFSET 4.14528 8.04674 8.04672
            CHANNELS 3 Zrotation Xrotation Yrotation
            End Site
            {
              OFFSET 1 0 0
            }
          }
          JOINT rightEye
          {
            OFFSET -3.6576 8.04674 8.04672
            CHANNELS 3 Zrotation Xrotation Yrotation
            End Site
            {
              OFFSET 1 0 0
            }
          }
        }
      }
      JOINT rCollar
      {
        OFFSET -2.68224 19.2634 -4.8768
        CHANNELS 3 Zrotation Xrotation Yrotation
        JOINT rShldr
        {
          OFFSET -8.77824 -1.95073 1.46304
          CHANNELS 3 Zrotation Xrotation Yrotation
          JOINT rForeArm
          {
            OFFSET -28.1742 -1.7115 0.48768
            CHANNELS 3 Zrotation Xrotation Yrotation
            JOINT rHand
            {
              OFFSET -22.5879 0.773209 7.07136
              CHANNELS 3 Zrotation Xrotation Yrotation
              JOINT rThumb1
              {
                OFFSET -1.2192 -0.487915 3.41376
                CHANNELS 3 Zrotation Xrotation Yrotation
                JOINT rThumb2
                {
                  OFFSET -3.37035 -0.52449 3.41376
                  CHANNELS 3 Zrotation Xrotation Yrotation
                  End Site
                  {
                    OFFSET -1.78271 -1.18214 1.43049
                  }
                }
              }
              JOINT rIndex1
              {
                OFFSET -7.75947 0.938293 5.60832
                CHANNELS 3 Zrotation Xrotation Yrotation
                JOINT rIndex2
                {
                  OFFSET -2.54057 -0.884171 1.56538
                  CHANNELS 3 Zrotation Xrotation Yrotation
                  End Site
                  {
                    OFFSET -1.62519 -0.234802 1.16502
                  }
                }
              }
              JOINT rMid1
              {
                OFFSET -8.24714 1.18213 3.41376
                CHANNELS 3 Zrotation Xrotation Yrotation
                JOINT rMid2
                {
                  OFFSET -3.10165 -0.590103 1.0647
                  CHANNELS 3 Zrotation Xrotation Yrotation
                  End Site
                  {
                    OFFSET -2.48547 -0.328903 0.83742
                  }
                }
              }
              JOINT rRing1
              {
                OFFSET -8.82822 0.546677 1.51678
                CHANNELS 3 Zrotation Xrotation Yrotation
                JOINT rRing2
                {
                  OFFSET -2.60934 -0.819778 -0.0198488
                  CHANNELS 3 Zrotation Xrotation Yrotation
                  End Site
                  {
                    OFFSET -2.33842 -0.294052 0.168128
                  }
                }
              }
              JOINT rPinky1
              {
                OFFSET -8.27202 -0.0477905 -0.4584
                CHANNELS 3 Zrotation Xrotation Yrotation
                JOINT rPinky2
                {
                  OFFSET -1.82734 -0.647385 -0.700984
                  CHANNELS 3 Zrotation Xrotation Yrotation
                  End Site
                  {
                    OFFSET -1.69225 -0.51767 -0.607171
                  }
                }
              }
            }
          }
        }
      }
      JOINT lCollar
      {
        OFFSET 2.68224 19.2634 -4.8768
        CHANNELS 3 Zrotation Xrotation Yrotation
        JOINT lShldr
        {
          OFFSET 8.77824 -1.95073 1.46304
          CHANNELS 3 Zrotation Xrotation Yrotation
          JOINT lForeArm
          {
            OFFSET 28.1742 -1.7115 0.48768
            CHANNELS 3 Zrotation Xrotation Yrotation
            JOINT lHand
            {
              OFFSET 22.5879 0.773209 7.07136
              CHANNELS 3 Zrotation Xrotation Yrotation
              JOINT lThumb1
              {
                OFFSET 1.2192 -0.487915 3.41376
                CHANNELS 3 Zrotation Xrotation Yrotation
                JOINT lThumb2
                {
                  OFFSET 3.37035 -0.52449 3.41376
                  CHANNELS 3 Zrotation Xrotation Yrotation
                  End Site
                  {
                    OFFSET 1.78271 -1.18214 1.43049
                  }
                }
              }
              JOINT lIndex1
              {
                OFFSET 7.75947 0.938293 5.60832
                CHANNELS 3 Zrotation Xrotation Yrotation
                JOINT lIndex2
                {
                  OFFSET 2.54057 -0.884171 1.56538
                  CHANNELS 3 Zrotation Xrotation Yrotation
                  End Site
                  {
                    OFFSET 1.62519 -0.234802 1.16502
                  }
                }
              }
              JOINT lMid1
              {
                OFFSET 8.24714 1.18213 3.41376
                CHANNELS 3 Zrotation Xrotation Yrotation
                JOINT lMid2
                {
                  OFFSET 3.10165 -0.590103 1.0647
                  CHANNELS 3 Zrotation Xrotation Yrotation
                  End Site
                  {
                    OFFSET 2.48547 -0.328903 0.83742
                  }
                }
              }
              JOINT lRing1
              {
                OFFSET 8.82822 0.546677 1.51678
                CHANNELS 3 Zrotation Xrotation Yrotation
                JOINT lRing2
                {
                  OFFSET 2.60934 -0.819778 -0.0198488
                  CHANNELS 3 Zrotation Xrotation Yrotation
                  End Site
                  {
                    OFFSET 2.33842 -0.294052 0.168128
                  }
                }
              }
              JOINT lPinky1
              {
                OFFSET 8.27202 -0.0477905 -0.4584
                CHANNELS 3 Zrotation Xrotation Yrotation
                JOINT lPinky2
                {
                  OFFSET 1.82734 -0.647385 -0.700984
                  CHANNELS 3 Zrotation Xrotation Yrotation
                  End Site
                  {
                    OFFSET 1.69225 -0.51767 -0.607171
                  }
                }
              }
            }
          }
        }
      }
    }
  }
  JOINT rButtock
  {
    OFFSET -8.77824 4.35084 1.2192
    CHANNELS 3 Zrotation Xrotation Yrotation
    JOINT rThigh
    {
      OFFSET 0 -1.70687 -2.19456
      CHANNELS 3 Zrotation Xrotation Yrotation
      JOINT rShin
      {
        OFFSET 0 -36.8199 0.73152
        CHANNELS 3 Zrotation Xrotation Yrotation
        JOINT rFoot
        {
          OFFSET 0.73152 -45.1104 -5.12064
          CHANNELS 3 Zrotation Xrotation Yrotation
          End Site
          {
            OFFSET -1.1221 -3.69964 12.103
          }
        }
      }
    }
  }
  JOINT lButtock
  {
    OFFSET 8.77824 4.35084 1.2192
    CHANNELS 3 Zrotation Xrotation Yrotation
    JOINT lThigh
    {
      OFFSET 0 -1.70687 -2.19456
      CHANNELS 3 Zrotation Xrotation Yrotation
      JOINT lShin
      {
        OFFSET 0 -36.8199 0.73152
        CHANNELS 3 Zrotation Xrotation Yrotation
        JOINT lFoot
        {
          OFFSET -0.73152 -45.1104 -5.12064
          CHANNELS 3 Zrotation Xrotation Yrotation
          End Site
          {
            OFFSET 1.1221 -3.69964 12.103
          }
        }
      }
    }
  }
}
MOTION
Frames:	4
Frame Time:	0.03333
-0.008766254315020467 44.96165998533322 0.04984732754245469 -2.269699811935425 3.261399745941162 3.6564996242523193 -3.2348992824554443 6.561939716339111 3.2226595878601074 2.2190799713134766 -6.7089104652404785 0.9658440947532654 -5.925539016723633 10.767899513244629 -4.502230167388916 7.5948591232299805 -16.060800552368164 -7.207049369812012 -0.0 0.0 -0.0 -0.0 0.0 -0.0 6.361109013662547e-14 -2.5444436054650188e-14 2.5444436054650188e-14 42.890899658203125 37.93609619140625 54.08639907836914 -20.089296340942383 -13.124499320983887 38.897098541259766 -0.6888248324394226 -22.889297485351562 -3.401679754257202 -7.798210965859198e-10 -1.441300134796819e-10 1.948344124924617e-10 -1.3505143670045072e-09 -1.7940872398813923e-10 3.2275632166900436e-10 -7.798210965859198e-10 -1.4411728754826214e-10 1.9482168656104193e-10 7.7309088706970215 5.474880218505859 0.41731396317481995 -7.798210965859198e-10 -1.4414272553331386e-10 1.948344124924617e-10 2.9055399894714355 0.9651829600334167 0.10290198773145676 -7.798210965859198e-10 -1.4411728754826214e-10 1.9482168656104193e-10 10.27859878540039 0.73180091381073 0.025912299752235413 -7.798338086395518e-10 -1.441300134796819e-10 1.9482168656104193e-10 2.2216696739196777 -0.7334870100021362 -0.2089199721813202 6.361109013662547e-14 -2.5444436054650188e-14 2.5444436054650188e-14 -50.40310287475586 44.34249496459961 -63.29609680175781 17.282400131225586 -9.935420036315918 -32.42949676513672 0.8728060722351074 -25.537199020385742 3.850100040435791 -6.576496014432109e-10 -1.9871850831520987e-09 8.651108475421498e-12 -1.1351780626611685e-09 -3.481027910368084e-09 1.9083326498886555e-12 -6.576496014432109e-10 -1.987172204565013e-09 8.651108475421498e-12 -7.7309088706970215 5.474880218505859 -0.41731396317481995 -6.576623134968429e-10 -1.9871850831520987e-09 8.644747244435091e-12 -2.9055399894714355 0.9651829600334167 -0.10290198773145676 -6.576623134968429e-10 -1.9871850831520987e-09 8.651108475421498e-12 -10.27859878540039 0.73180091381073 -0.025912299752235413 -6.576496014432109e-10 -1.9871850831520987e-09 8.638386013448685e-12 -2.2216696739196777 -0.7334870100021362 0.2089199721813202 -0.0 0.0 -0.0 4.198170185089111 -35.181095123291016 -1.0877199172973633 -0.8681749105453491 56.75359344482422 1.39028000831604 0.002136102644726634 -20.77509880065918 0.23109999299049377 -0.0 0.0 -0.0 -7.14432954788208 -35.63859939575195 -3.8664000034332275 0.8506050109863281 57.22599411010742 -1.4916800260543823 4.374749183654785 -20.102800369262695 8.964018821716309
-0.026814425552130833 44.93364254935783 0.09110028941726316 -2.2457995414733887 3.356300115585327 3.5837996006011963 -3.2081398963928223 6.515710353851318 3.1715400218963623 2.2364296913146973 -6.748389720916748 0.9531459212303162 -5.924489974975586 10.728899955749512 -4.506279945373535 7.607310771942139 -15.91189956665039 -7.218510627746582 -0.0 0.0 -0.0 -0.0 0.0 -0.0 6.361109013662547e-14 -1.2722218027325094e-14 5.0888872109300376e-14 42.79010009765625 38.15009689331055 54.13129806518555 -20.060400009155273 -13.087900161743164 38.82679748535156 -0.6928320527076721 -22.950698852539062 -3.4118802547454834 -1.0085537960335955e-09 -5.858072360531708e-10 3.183162622377722e-10 -1.7481345260250691e-09 -9.23353116188963e-10 5.323930185596737e-10 -1.0085537960335955e-09 -5.858072360531708e-10 3.1830352242856463e-10 7.7309088706970215 5.474880218505859 0.41731396317481995 -1.0085537960335955e-09 -5.858327156715859e-10 3.183162622377722e-10 2.9055399894714355 0.9651829600334167 0.10290198773145676 -1.0085537960335955e-09 -5.858072360531708e-10 3.1830990621095623e-10 10.27859878540039 0.73180091381073 0.025912299752235413 -1.0085537960335955e-09 -5.858072360531708e-10 3.1830990621095623e-10 2.2216696739196777 -0.7334870100021362 -0.2089199721813202 6.361109013662547e-14 -1.2722218027325094e-14 5.0888872109300376e-14 -50.5099983215332 44.46089553833008 -63.10529708862305 17.275400161743164 -9.928290367126465 -32.4141960144043 0.8942778706550598 -25.823299407958984 3.899709463119507 -9.738857498220455e-10 -2.9548750113406186e-09 5.260636978116073e-12 -1.680566796835592e-09 -5.175347261854313e-09 -1.046402461207796e-11 -9.738857498220455e-10 -2.954862354798138e-09 5.26699820910248e-12 -7.7309088706970215 5.474880218505859 -0.41731396317481995 -9.738857498220455e-10 -2.9548878899277042e-09 5.2479149498241284e-12 -2.9055399894714355 0.9651829600334167 -0.10290198773145676 -9.738985173868286e-10 -2.9548750113406186e-09 5.260636978116073e-12 -10.27859878540039 0.73180091381073 -0.025912299752235413 -9.738857498220455e-10 -2.9548750113406186e-09 5.2479149498241284e-12 -2.2216696739196777 -0.7334870100021362 0.2089199721813202 -0.0 0.0 -0.0 4.140580177307129 -35.145896911621094 -1.2738099098205566 -0.8740810751914978 56.868099212646484 1.3960200548171997 0.05618569999933243 -20.90159797668457 0.34102898836135864 -0.0 0.0 -0.0 -7.134939670562744 -35.629798889160156 -3.90925931930542 0.8587700128555298 57.38669967651367 -1.5019599199295044 4.433710098266602 -20.20939826965332 9.055889129638672
-0.04022163832819625 44.90293060375486 0.1380828295155202 -2.3082995414733887 3.3292999267578125 3.5849995613098145 -3.118410110473633 6.475539684295654 3.1244800090789795 2.2238399982452393 -6.751930236816406 0.940599799156189 -5.848730087280273 10.384699821472168 -4.461489677429199 7.513630390167236 -15.396500587463379 -7.150660037994385 -0.0 0.0 -0.0 -0.0 0.0 -0.0 1.2722218027325094e-14 1.0177774421860075e-13 4.452776309563783e-14 42.655704498291016 38.35009765625 54.20199966430664 -20.04069709777832 -13.06299877166748 38.77880096435547 -0.6859151124954224 -22.84360122680664 -3.3941097259521484 -4.750476123582814e-10 -2.5921009783047566e-09 5.486074927674167e-10 -8.328981948579894e-10 -4.44277681310723e-09 9.415014323721493e-10 -4.750349003046495e-10 -2.5921138568918423e-09 5.486011089850251e-10 7.7309088706970215 5.474880218505859 0.41731396317481995 -4.750476123582814e-10 -2.5921138568918423e-09 5.486074927674167e-10 2.9055399894714355 0.9651829600334167 0.10290198773145676 -4.750349003046495e-10 -2.5921138568918423e-09 5.486074927674167e-10 10.27859878540039 0.73180091381073 0.025912299752235413 -4.750476123582814e-10 -2.5921009783047566e-09 5.486138210386571e-10 2.2216696739196777 -0.7334870100021362 -0.2089199721813202 1.2722218027325094e-14 1.0177774421860075e-13 4.452776309563783e-14 -50.4004020690918 44.55249786376953 -63.08379364013672 17.27869987487793 -9.931609153747559 -32.4213981628418 0.918281078338623 -26.137699127197266 3.954519748687744 -8.228221992645501e-10 -3.3704208313167783e-09 -2.0291937574690166e-10 -1.413794636917487e-09 -5.8723470530708255e-09 -3.6921149471069725e-10 -8.228221992645501e-10 -3.3704081747742975e-09 -2.029066498154819e-10 -7.7309088706970215 5.474880218505859 -0.41731396317481995 -8.228221992645501e-10 -3.370433709903864e-09 -2.0293210167832143e-10 -2.9055399894714355 0.9651829600334167 -0.10290198773145676 -8.228349113181821e-10 -3.3704208313167783e-09 -2.0291937574690166e-10 -10.27859878540039 0.73180091381073 -0.025912299752235413 -8.228221992645501e-10 -3.3704208313167783e-09 -2.0292573177371764e-10 -2.2216696739196777 -0.7334870100021362 0.2089199721813202 -0.0 0.0 -0.0 4.062789440155029 -35.12049865722656 -1.5479999780654907 -0.8799189925193787 56.975196838378906 1.4003700017929077 0.15609899163246155 -21.03729820251465 0.5446049571037292 -0.0 0.0 -0.0 -7.1174092292785645 -35.63850021362305 -3.989579916000366 0.8674778938293457 57.55619812011719 -1.5130199193954468 4.506250381469727 -20.291898727416992 9.182909965515137
-0.05213916033260811 44.87307926198732 0.18105466452385793 -2.363699436187744 3.3581998348236084 3.525599479675293 -3.0365400314331055 6.421670436859131 3.092290163040161 2.2250797748565674 -6.748349666595459 0.9322900176048279 -5.818179607391357 10.19540023803711 -4.440779685974121 7.455100059509277 -15.10469913482666 -7.118609428405762 -0.0 0.0 -0.0 -0.0 0.0 -0.0 -2.5444436054650188e-14 1.7811105238255132e-13 3.816665408197528e-14 42.56370162963867 38.4984016418457 54.23829650878906 -20.016098022460938 -13.032000541687012 38.71909713745117 -0.6881239414215088 -22.878198623657227 -3.3998498916625977 -5.378953879531245e-11 -2.8867856993741725e-09 5.154279225649816e-10 -1.0488196422464569e-10 -4.990124757853209e-09 8.920437721826602e-10 -5.378953879531245e-11 -2.8867856993741725e-09 5.154152105113496e-10 7.7309088706970215 5.474880218505859 0.41731396317481995 -5.378953879531245e-11 -2.8867856993741725e-09 5.154215942937412e-10 2.9055399894714355 0.9651829600334167 0.10290198773145676 -5.378953879531245e-11 -2.8867856993741725e-09 5.154215942937412e-10 10.27859878540039 0.73180091381073 0.025912299752235413 -5.378953879531245e-11 -2.8867856993741725e-09 5.154279225649816e-10 2.2216696739196777 -0.7334870100021362 -0.2089199721813202 -2.5444436054650188e-14 1.7811105238255132e-13 3.816665408197528e-14 -50.35309600830078 44.62759780883789 -63.04449462890625 17.26310157775879 -9.915799140930176 -32.387298583984375 0.925233781337738 -26.226699829101562 3.97012996673584 -4.517659579761357e-10 -2.9790727662515337e-09 -3.911763968300619e-10 -7.690071912591634e-10 -5.160475158305644e-09 -6.8805572350783e-10 -4.517659579761357e-10 -2.9790727662515337e-09 -3.9116368477642993e-10 -7.7309088706970215 5.474880218505859 -0.41731396317481995 -4.517659579761357e-10 -2.9790854227940144e-09 -3.9118275285687787e-10 -2.9055399894714355 0.9651829600334167 -0.10290198773145676 -4.517786977853433e-10 -2.9790727662515337e-09 -3.911763968300619e-10 -10.27859878540039 0.73180091381073 -0.025912299752235413 -4.517659579761357e-10 -2.979060109709053e-09 -3.9118275285687787e-10 -2.2216696739196777 -0.7334870100021362 0.2089199721813202 -0.0 0.0 -0.0 3.9852797985076904 -35.1046028137207 -1.8058197498321533 -0.8855819702148438 57.07919692993164 1.4046000242233276 0.25256097316741943 -21.16189956665039 0.7392109632492065 -0.0 0.0 -0.0 -7.074189186096191 -35.65090560913086 -4.011110305786133 0.8754118084907532 57.70900344848633 -1.5229697227478027 4.557969570159912 -20.384300231933594 9.262140274047852
